<svg width="23" height="27" viewBox="0 0 23 27" fill="none" xmlns="http://www.w3.org/2000/svg">
<path d="M19.2561 19.0373L11.5 26.7934L3.74388 19.0373C2.20989 17.5033 1.16523 15.5488 0.742007 13.4211C0.318786 11.2934 0.536011 9.08793 1.36621 7.08366C2.19642 5.07939 3.60231 3.36631 5.40611 2.16106C7.20991 0.955803 9.3306 0.3125 11.5 0.3125C13.6694 0.3125 15.7901 0.955803 17.5939 2.16106C19.3977 3.36631 20.8036 5.07939 21.6338 7.08366C22.464 9.08793 22.6812 11.2934 22.258 13.4211C21.8348 15.5488 20.7901 17.5033 19.2561 19.0373ZM11.5 13.7187C12.1465 13.7187 12.7665 13.4618 13.2236 13.0047C13.6807 12.5476 13.9375 11.9276 13.9375 11.2812C13.9375 10.6347 13.6807 10.0147 13.2236 9.55758C12.7665 9.10046 12.1465 8.84365 11.5 8.84365C10.8535 8.84365 10.2336 9.10046 9.77643 9.55758C9.31931 10.0147 9.0625 10.6347 9.0625 11.2812C9.0625 11.9276 9.31931 12.5476 9.77643 13.0047C10.2336 13.4618 10.8535 13.7187 11.5 13.7187Z" fill="#012060"/>
</svg>
