<svg width="18" height="24" viewBox="0 0 18 24" fill="none" xmlns="http://www.w3.org/2000/svg">
<path fill-rule="evenodd" clip-rule="evenodd" d="M9.78718 8.63116L13.2744 0L17.7884 1.82378L14.245 10.594C13.0267 9.52564 11.4856 8.81632 9.78718 8.63116ZM3.54527 10.5986L0 1.82378L4.51402 0L8.00155 8.63192C6.30333 8.81852 4.76283 9.52916 3.54527 10.5986ZM8.89782 24C12.931 24 16.2006 20.7304 16.2006 16.6972C16.2006 12.664 12.931 9.3944 8.89782 9.3944C4.86459 9.3944 1.59502 12.664 1.59502 16.6972C1.59502 20.7304 4.86459 24 8.89782 24ZM8.89782 18.8818L6.05784 20.7543L7.27497 17.5086L4.84071 15.8858H7.68069L8.89782 12.6401L10.115 15.8858H12.9549L10.5207 17.5086L11.7378 20.7543L8.89782 18.8818Z" fill="#B88C7E"/>
</svg>
