<svg width="130" height="100" viewBox="0 0 130 100" fill="none" xmlns="http://www.w3.org/2000/svg">
<path d="M128.826 35.5859L95.2438 2.00278C93.6772 0.435923 91.1363 0.435923 89.5695 2.00278L73.2715 18.3008C71.7046 19.8676 71.7046 22.4082 73.2715 23.9751L76.341 27.0445L67.7574 27.7966C66.8106 27.8796 65.8892 28.0744 64.9997 28.3712C64.1126 28.0751 63.1891 27.8794 62.2464 27.7966L53.6626 27.0445L56.732 23.9751C58.2989 22.4082 58.2989 19.8676 56.732 18.3008L40.434 2.00278C38.8674 0.435923 36.3266 0.435923 34.7598 2.00278L1.17709 35.5859C-0.389761 37.1525 -0.389761 39.6934 1.17709 41.2602L17.4751 57.5582C19.0412 59.1243 21.5828 59.1248 23.1494 57.5582L26.7797 53.9279L27.5303 62.5096C27.7761 65.3244 29.0126 67.9752 31.0106 69.9732L55.1761 94.1357C61.8094 100.769 68.8137 100.15 73.3477 95.6165C75.496 93.4679 98.9064 70.0606 98.995 69.9717C100.992 67.9737 102.228 65.3239 102.474 62.5096L103.224 53.9276L106.855 57.558C108.421 59.1241 110.962 59.1246 112.529 57.558L128.827 41.26C130.394 39.6934 130.394 37.1525 128.826 35.5859ZM20.3122 49.0468L9.68854 38.4231L37.5974 10.5145L48.2208 21.1379C14.5348 54.8239 23.1387 46.22 20.3122 49.0468ZM89.6779 67.927C89.6774 67.9275 89.6769 67.928 89.6764 67.9285C88.2045 69.4022 85.8208 69.4027 84.3454 67.9272C84.3428 67.9247 84.3398 67.9224 84.3372 67.9199L77.9304 61.5128C76.3633 59.946 73.823 59.9462 72.2561 61.5128C70.6893 63.0797 70.6893 65.6202 72.2561 67.1871L78.6711 73.602C78.6723 73.6033 78.6738 73.6043 78.6751 73.6056C80.1445 75.0793 80.148 77.4604 78.6698 78.9356C77.1979 80.409 74.8137 80.4098 73.338 78.9343C73.3362 78.9325 73.3342 78.931 73.3327 78.9295L66.9231 72.5199C65.3565 70.953 62.8156 70.953 61.2488 72.5199C59.6819 74.0868 59.6819 76.6273 61.2488 78.1942L67.6637 84.6091C67.6645 84.6099 67.6652 84.6107 67.6663 84.6117C69.131 86.0798 69.1473 88.4611 67.6596 89.9455C66.7783 90.8293 65.5136 91.2148 64.2766 90.9776C62.9286 90.7191 62.451 90.0625 60.8496 88.4611L36.6839 64.2984C36.0179 63.6324 35.6058 62.7488 35.5238 61.8104L34.1867 46.5212C35.8635 44.8441 43.5787 37.1271 46.2559 34.4512L61.5453 35.7908C62.483 35.8729 63.3656 36.2844 64.0308 36.9492C69.9032 42.8192 88.1654 61.0822 89.6761 62.5934C91.147 64.0648 91.1475 66.4576 89.6779 67.927ZM94.9429 56.5109C93.6868 55.2545 79.9238 41.491 73.7582 35.3267L83.7469 34.4515C86.6 37.3026 94.9723 45.6777 95.8163 46.5214L94.9429 56.5109ZM109.692 49.0468C105.933 45.2887 82.613 21.9682 81.7829 21.1382L92.4064 10.5147L120.315 38.4228L109.692 49.0468Z" fill="white"/>
</svg>
