<svg width="24" height="22" viewBox="0 0 24 22" fill="none" xmlns="http://www.w3.org/2000/svg">
<path d="M1.50016 0.460938H22.5002C22.8096 0.460938 23.1063 0.583854 23.3251 0.802646C23.5439 1.02144 23.6668 1.31818 23.6668 1.6276V20.2943C23.6668 20.6037 23.5439 20.9004 23.3251 21.1192C23.1063 21.338 22.8096 21.4609 22.5002 21.4609H1.50016C1.19074 21.4609 0.893997 21.338 0.675205 21.1192C0.456412 20.9004 0.333496 20.6037 0.333496 20.2943V1.6276C0.333496 1.31818 0.456412 1.02144 0.675205 0.802646C0.893997 0.583854 1.19074 0.460938 1.50016 0.460938ZM12.0702 10.5911L4.5895 4.2386L3.07866 6.0166L12.0853 13.6641L20.9298 6.01077L19.4038 4.2456L12.0713 10.5911H12.0702Z" fill="#012060"/>
</svg>
