<svg width="130" height="86" viewBox="0 0 130 86" fill="none" xmlns="http://www.w3.org/2000/svg">
<path d="M16.5158 18.4816L46.5982 22.3489C47.6481 25.0146 52.9379 38.136 53.9325 40.484C53.9325 40.484 53.9325 40.484 53.9186 40.484C45.2032 44.7933 36.4879 49.0888 27.7726 53.3982C30.7974 52.8457 33.8636 52.5695 36.9437 52.5695C40.9768 52.5695 44.927 53.0529 48.6977 54.0059C56.308 55.9396 63.1864 59.0333 69.8299 62.0306C75.7553 64.6964 81.3629 67.2241 86.9568 68.6743C87.744 68.8815 88.5037 69.0611 89.2634 69.2129C82.6336 55.6357 64.8024 19.0479 61.2803 10.9955C59.6229 7.19721 57.3439 5.78839 54.1121 5.37403L18.7811 0.829896C13.9055 0.208359 9.44423 3.64753 8.80888 8.52315C8.20102 13.3988 11.6402 17.86 16.5158 18.4816Z" fill="white"/>
<path d="M2.30355 81.9332C3.2842 82.6376 4.40297 82.9691 5.52174 82.9691C5.77035 82.9691 6.00516 82.9551 6.23996 82.9138C7.70403 82.7204 9.08522 81.947 10.0106 80.6625C13.5879 75.6762 19.1265 71.7538 25.5767 69.599C29.2783 68.3698 33.1456 67.7483 36.9439 67.7483C50.7144 67.7483 62.5237 75.9802 74.9543 80.7176C81.6117 83.259 88.5591 85.1374 96.1142 85.1374C99.291 85.1374 102.578 84.806 105.99 84.0464C114.015 82.2785 120.893 78.4664 125.865 73.121C127.053 71.8365 128.13 70.4829 129.083 69.0327C130.768 66.4913 130.064 63.0659 127.523 61.3808C126.583 60.7593 125.534 60.4693 124.484 60.4693C122.688 60.4693 120.934 61.3394 119.871 62.9416C119.443 63.5906 118.973 64.2122 118.462 64.82C115.009 68.936 109.829 71.8917 103.614 73.2591C97.8821 74.5161 91.5563 74.1431 85.9073 72.6792C79.9682 71.1322 74.2223 68.5494 68.1174 65.8007C61.6258 62.8863 54.927 59.8615 47.662 58.0109C44.209 57.1269 40.5903 56.6987 36.9301 56.6987C31.944 56.6987 26.875 57.5135 22.0546 59.1158C17.842 60.5246 13.9332 62.4858 10.425 64.9583C6.72338 67.5687 3.56044 70.6764 1.01904 74.2123C0.853297 74.4471 0.715178 74.6819 0.59087 74.9305C-0.61077 77.32 0.0522041 80.3172 2.30355 81.9332Z" fill="white"/>
<path d="M102.329 56.2971C113.093 56.2971 121.818 47.5718 121.818 36.8085C121.818 26.0452 113.093 17.3198 102.329 17.3198C91.5662 17.3198 82.8408 26.0452 82.8408 36.8085C82.8408 47.5718 91.5662 56.2971 102.329 56.2971Z" fill="white"/>
</svg>
