<svg width="90" height="94" viewBox="0 0 90 94" fill="none" xmlns="http://www.w3.org/2000/svg">
<path d="M89.7643 10.4623C89.8959 8.00886 88.9935 5.57426 87.3015 3.78826C85.6001 2.00226 83.2125 0.968262 80.7403 0.968262H73.6151H66.9787H56.5165H50.8013H39.2017H33.4865H23.0337H16.3973H9.2627C6.7905 0.968262 4.4029 1.99286 2.7015 3.78826C1.0095 5.57426 0.1071 8.00886 0.2387 10.4623C0.5959 17.3149 2.2597 23.5659 5.1925 29.0461C7.5707 33.4923 10.7573 37.4027 14.6677 40.6739C15.3351 41.2285 16.0025 41.7549 16.6605 42.2343C16.9895 44.6219 17.6287 46.9531 18.5781 49.1903C19.9787 52.4897 21.9715 55.4507 24.5189 57.9981C27.0663 60.5455 30.0273 62.5383 33.3267 63.9389C36.0057 65.0669 38.8069 65.7625 41.6927 66.0163V72.5211C38.7599 72.9817 36.0245 74.0533 33.7591 75.6513C30.0179 78.2927 27.8747 82.1749 27.8747 86.3109V92.9473H34.5111H55.4919H62.1283V86.3109C62.1283 82.1749 59.9851 78.2927 56.2439 75.6513C53.9879 74.0533 51.2525 72.9911 48.3197 72.5211V66.0257C51.2055 65.7719 54.0067 65.0857 56.6857 63.9483C59.9851 62.5477 62.9461 60.5549 65.4935 58.0075C68.0409 55.4601 70.0337 52.4991 71.4343 49.1997C72.3837 46.9625 73.0229 44.6313 73.3519 42.2437C74.0099 41.7549 74.6773 41.2379 75.3447 40.6833C79.2551 37.4121 82.4417 33.5017 84.8199 29.0555C87.7433 23.5659 89.4071 17.3149 89.7643 10.4623ZM65.1833 46.9155C61.9121 54.3227 54.5049 59.4927 45.8945 59.4927H44.1179C35.4981 59.4927 28.0909 54.3227 24.8291 46.9155C23.6917 44.3493 23.0619 41.5199 23.0431 38.5401C23.0431 38.4931 23.0431 38.4555 23.0431 38.4085V7.60466H33.5053H40.2169H49.8237H56.5353H66.9975V38.4085C66.9975 38.4555 66.9975 38.4931 66.9975 38.5401C66.9505 41.5199 66.3207 44.3493 65.1833 46.9155ZM6.8657 10.1239C6.7905 8.75146 7.8903 7.60466 9.2627 7.60466H16.3973V33.2479C11.6879 28.4069 7.4391 21.0561 6.8657 10.1239ZM55.4919 86.3015H34.5111C34.5111 82.4757 38.6095 79.3361 43.8735 78.9319H46.1389C51.3935 79.3361 55.4919 82.4757 55.4919 86.3015ZM83.1373 10.1239C82.5639 21.0561 78.3151 28.4069 73.6057 33.2479V7.60466H80.7309C82.1127 7.60466 83.2031 8.75146 83.1373 10.1239Z" fill="white"/>
<path d="M62.2035 93.0101H27.7995V86.2985C27.7995 82.1343 29.9521 78.2333 33.7121 75.5731C35.9399 73.9939 38.6753 72.9129 41.6081 72.4429V66.0791C38.7411 65.8253 35.9399 65.1297 33.2891 64.0017C29.9803 62.6011 27.0099 60.5989 24.4531 58.0515C21.9057 55.5041 19.9035 52.5337 18.5029 49.2155C17.5629 46.9971 16.9143 44.6565 16.5853 42.2689C15.9085 41.7707 15.2505 41.2537 14.6113 40.7179C10.6915 37.4373 7.49551 33.5175 5.11731 29.0713C2.18451 23.5817 0.520712 17.3213 0.154112 10.4593C0.0225122 7.97774 0.934312 5.52434 2.64511 3.71954C4.36531 1.92414 6.78111 0.890137 9.26271 0.890137H80.7309C83.2219 0.890137 85.6283 1.92414 87.3485 3.72894C89.0593 5.53374 89.9617 7.98714 89.8395 10.4687C89.4823 17.3307 87.8091 23.5911 84.8763 29.0807C82.4981 33.5363 79.3021 37.4561 75.3823 40.7273C74.7525 41.2537 74.0851 41.7801 73.4083 42.2783C73.0793 44.6659 72.4307 47.0065 71.4907 49.2249C70.0901 52.5337 68.0879 55.5041 65.5405 58.0609C62.9931 60.6083 60.0227 62.6105 56.7045 64.0111C54.0537 65.1297 51.2619 65.8253 48.3855 66.0885V72.4523C51.3183 72.9223 54.0537 74.0033 56.2815 75.5825C60.0415 78.2333 62.1941 82.1437 62.1941 86.3079V93.0101H62.2035ZM27.9499 92.8597H62.0437V86.2985C62.0437 82.1907 59.9099 78.3273 56.1969 75.7047C53.9691 74.1349 51.2337 73.0539 48.3009 72.5933L48.2351 72.5839V65.9475L48.3103 65.9381C51.1867 65.6937 53.9973 64.9887 56.6481 63.8701C59.9381 62.4789 62.8991 60.4861 65.4277 57.9481C67.9657 55.4101 69.9585 52.4585 71.3497 49.1685C72.2897 46.9501 72.9289 44.6095 73.2579 42.2313V42.2031L73.2861 42.1843C73.9629 41.6861 74.6303 41.1597 75.2789 40.6239C79.1799 37.3621 82.3665 33.4517 84.7353 29.0149C87.6587 23.5441 89.3225 17.3025 89.6797 10.4687C89.8113 8.03414 88.9183 5.61834 87.2357 3.85114C85.5531 2.07454 83.1843 1.05934 80.7309 1.05934H9.26271C6.81871 1.05934 4.44991 2.07454 2.75791 3.85114C1.07531 5.61834 0.182312 8.03414 0.313912 10.4687C0.671112 17.3119 2.33491 23.5535 5.25831 29.0149C7.62711 33.4517 10.8137 37.3527 14.7147 40.6239C15.3539 41.1597 16.0213 41.6861 16.7075 42.1843L16.7357 42.2031V42.2313C17.0647 44.6189 17.7039 46.9501 18.6439 49.1685C20.0351 52.4585 22.0279 55.4195 24.5659 57.9481C27.1039 60.4767 30.0555 62.4789 33.3455 63.8701C36.0057 64.9981 38.8069 65.6937 41.6833 65.9381L41.7585 65.9475V72.5839L41.6927 72.5933C38.7599 73.0539 36.0245 74.1349 33.7967 75.7047C30.0837 78.3273 27.9499 82.1907 27.9499 86.2985V92.8597ZM55.5671 86.3737H34.4359V86.2985C34.4359 82.4633 38.4873 79.2579 43.8641 78.8537H46.1389C51.5251 79.2579 55.5765 82.4633 55.5765 86.2985V86.3737H55.5671ZM34.5863 86.2233H55.4167C55.3603 82.5009 51.3841 79.4083 46.1295 79.0135H43.8735C38.6189 79.4083 34.6427 82.5009 34.5863 86.2233ZM45.8945 59.5649H44.1179C35.7425 59.5649 28.1379 54.6111 24.7539 46.9407C23.5789 44.2899 22.9773 41.4605 22.9585 38.5277V38.3961V7.52654H67.0539V38.5371C67.0351 41.4605 66.4335 44.2899 65.2585 46.9501C61.8745 54.6111 54.2699 59.5649 45.8945 59.5649ZM23.1089 7.67694V38.4055V38.5371C23.1277 41.4417 23.7293 44.2523 24.8855 46.8843C28.2507 54.4983 35.7895 59.4145 44.1085 59.4145H45.8851C54.2041 59.4145 61.7429 54.4983 65.1081 46.8843C66.2737 44.2523 66.8753 41.4417 66.8847 38.5371V38.4055V7.67694H23.1089ZM73.5305 33.4329V7.52654H80.7403C81.4265 7.52654 82.0657 7.79914 82.5451 8.29734C83.0151 8.79554 83.2595 9.44414 83.2219 10.1209C82.7331 19.4833 79.5183 27.2759 73.6715 33.2919L73.5305 33.4329ZM73.6809 7.67694V33.0475C79.4243 27.0785 82.5733 19.3611 83.0527 10.1115C83.0903 9.47234 82.8647 8.87074 82.4229 8.40074C81.9811 7.93074 81.3795 7.67694 80.7309 7.67694H73.6809ZM16.4725 33.4329L16.3409 33.2919C10.4941 27.2759 7.27931 19.4833 6.79051 10.1209C6.75291 9.44414 6.99731 8.79554 7.46731 8.29734C7.93731 7.79914 8.57651 7.52654 9.27211 7.52654H16.4819V33.4329H16.4725ZM9.26271 7.67694C8.61411 7.67694 8.01251 7.93074 7.57071 8.40074C7.12891 8.86134 6.90331 9.47234 6.94091 10.1115C7.42031 19.3611 10.5787 27.0785 16.3127 33.0475V7.67694H9.26271Z" fill="white"/>
</svg>
