<svg width="20" height="17" viewBox="0 0 20 17" fill="none" xmlns="http://www.w3.org/2000/svg">
<path d="M19.8961 0.312421C19.8349 0.256057 19.756 0.226562 19.6763 0.226562C19.6282 0.226562 19.5802 0.237229 19.5348 0.259532L0.319362 9.68526C0.122959 9.78178 -0.0013227 9.98234 1.06223e-05 10.2017C0.00134395 10.4208 0.127727 10.62 0.325544 10.7144L5.38984 13.1275L15.5158 4.80472L6.64458 13.7253L12.9534 16.7314C13.0309 16.7685 13.1155 16.787 13.1992 16.787C13.2707 16.787 13.3414 16.7739 13.4088 16.7475C13.5557 16.6894 13.6725 16.573 13.7308 16.426L19.9771 0.66854C20.0265 0.54454 19.9943 0.402764 19.8961 0.312421Z" fill="white"/>
</svg>
