<?xml version="1.0" encoding="UTF-8"?>
<svg width="161px" height="63px" viewBox="0 0 161 63" version="1.1" xmlns="http://www.w3.org/2000/svg" xmlns:xlink="http://www.w3.org/1999/xlink">
    <!-- Generator: sketchtool 53.2 (72643) - https://sketchapp.com -->
    <title>C982ACC4-1E29-49A1-9A5A-FB37C8414619</title>
    <desc>Created with sketchtool.</desc>
    <g id="18-Feb-2019" stroke="none" stroke-width="1" fill="none" fill-rule="evenodd">
        <g id="Landing-page" transform="translate(-1219.000000, -34.000000)">
            <g id="Section-1">
                <g id="CMD-Logo" transform="translate(1220.000000, 34.000000)">
                    <g id="Group-26-Copy-2">
                        <g id="Group-26-Copy">
                            <path d="M7.24102357,21.5748818 C8.45287542,21.5748818 9.79752189,21.3534273 11.1308552,20.9334273 L11.5922694,20.7886091 L11.1836498,18.8203364 L10.641697,18.9684273 C9.34769024,19.3199727 8.18755556,19.5067909 7.28546801,19.5067909 C4.92479461,19.5067909 3.39886869,18.0037909 3.39886869,15.6774273 C3.39886869,13.3177909 4.91240404,11.9091545 7.44843098,11.9091545 C8.30176431,11.9091545 9.27819529,12.0602455 10.4350976,12.3730636 L10.9837845,12.5211545 L11.3786667,10.4857909 L10.91833,10.3450636 C9.77274074,9.99460909 8.53179798,9.8097 7.33018182,9.8097 C3.67657912,9.8097 1.22270707,12.1737 1.22270707,15.6924273 C1.22270707,19.2108818 3.64129293,21.5748818 7.24102357,21.5748818" id="Fill-12" fill="#000000"></path>
                            <path d="M27.8424781,16.6882909 L29.4327811,13.0697455 L31.0139259,16.6882909 L27.8424781,16.6882909 Z M28.5859125,9.98710909 L23.5119731,21.3792 L25.8694141,21.3792 L26.954936,18.6985636 L31.9160135,18.6985636 L33.0158114,21.3792 L35.357899,21.3792 L30.2831515,9.98710909 L28.5859125,9.98710909 Z" id="Fill-13" fill="#000000"></path>
                            <path d="M53.9522963,13.7588727 C53.9522963,14.9493273 53.1105455,15.6832364 51.7015219,15.6832364 L49.9536431,15.6832364 L49.9536431,12.0120545 C50.6154613,11.9929636 51.069064,11.9951455 51.6850909,11.9951455 C53.2172121,11.9951455 53.9522963,12.5967818 53.9522963,13.7588727 L53.9522963,13.7588727 Z M49.9536431,17.6935091 L51.3602424,17.6935091 C51.5388283,17.6935091 51.7160673,17.6856 51.8900741,17.6771455 L54.5702088,21.3791455 L57.1743838,21.3791455 L54.0371448,17.0866909 C55.3289966,16.4305091 56.0549226,15.2389636 56.0549226,13.7430545 C56.0549226,11.3959636 54.3525657,9.93414545 51.6123636,9.93414545 C50.5537778,9.93414545 49.4502088,9.98050909 48.5222626,10.0236 L47.6374141,10.0585091 L47.6374141,21.3791455 L49.9536431,21.3791455 L49.9536431,17.6935091 Z" id="Fill-14" fill="#000000"></path>
                            <polygon id="Fill-15" fill="#000000" points="74.4418047 21.3791182 76.4275286 21.3791182 76.4275286 11.9975727 80.3984377 11.9975727 80.3984377 9.98702727 70.4708956 9.98702727 70.4708956 11.9975727 74.4418047 11.9975727"></polygon>
                            <path d="M98.5252256,9.80967273 C95.0779529,9.80967273 92.6706801,12.2282182 92.6706801,15.6924 C92.6706801,19.1563091 95.0779529,21.5748545 98.5252256,21.5748545 C101.963071,21.5748545 104.364148,19.1563091 104.364148,15.6924 C104.364148,12.2282182 101.963071,9.80967273 98.5252256,9.80967273" id="Fill-16" fill="#000000"></path>
                            <path d="M121.552754,9.80967273 C118.105481,9.80967273 115.698209,12.2282182 115.698209,15.6924 C115.698209,19.1563091 118.105481,21.5748545 121.552754,21.5748545 C124.990599,21.5748545 127.391677,19.1563091 127.391677,15.6924 C127.391677,12.2282182 124.990599,9.80967273 121.552754,9.80967273" id="Fill-17" fill="#000000"></path>
                            <polygon id="Fill-18" fill="#000000" points="147.244444 9.98716364 147.244444 17.5313455 141.537778 9.98716364 139.633131 9.98716364 139.633131 21.3792545 141.94963 21.3792545 141.94963 13.8877091 147.561481 21.3792545 149.560943 21.3792545 149.560943 9.98716364"></polygon>
                            <polygon id="Fill-19" fill="#000000" points="10.1273266 33.4411909 6.40746128 41.6489182 2.68759596 33.4411909 0.835744108 33.4411909 0.178505051 44.8332818 2.2832862 44.8332818 2.65123232 38.5221 5.59560943 44.8332818 7.22039057 44.8332818 10.1531852 38.5221 10.5327138 44.8332818 12.6361481 44.8332818 11.9789091 33.4411909"></polygon>
                            <path d="M27.8424781,40.1423182 L29.4327811,36.5237727 L31.0139259,40.1423182 L27.8424781,40.1423182 Z M28.5859125,33.4411364 L23.5119731,44.8332273 L25.8694141,44.8332273 L26.954936,42.1525909 L31.9160135,42.1525909 L33.0158114,44.8332273 L35.357899,44.8332273 L30.2831515,33.4411364 L28.5859125,33.4411364 Z" id="Fill-20" fill="#000000"></path>
                            <polygon id="Fill-21" fill="#000000" points="55.2484579 40.9670182 49.4278519 33.4411091 47.6374141 33.4411091 47.6374141 44.8332 49.6228687 44.8332 49.6228687 37.3233818 55.4512862 44.8332 57.2339125 44.8332 57.2339125 33.4411091 55.2484579 33.4411091"></polygon>
                            <path d="M74.7727138,40.1423182 L79.0746667,40.1423182 L79.0746667,42.4040455 C78.0820741,42.7326818 76.9378316,42.9121364 75.9560135,42.9121364 C73.667798,42.9121364 72.1569562,41.4205909 72.1569562,39.1133182 C72.1569562,36.8237727 73.6427475,35.3436818 75.9673266,35.3436818 C76.890963,35.3436818 77.9961481,35.5002273 79.1770236,35.7950455 L79.6966195,35.9265 L80.1507609,33.9225 L79.6707609,33.7795909 C78.517899,33.4354091 77.1756768,33.2453182 75.8910976,33.2453182 C72.3455084,33.2453182 69.9627475,35.6030455 69.9627475,39.1133182 C69.9627475,42.6402273 72.3449697,45.0105 75.8908283,45.0105 C77.4377643,45.0105 79.1218047,44.6357727 80.7215354,43.9261364 L81.0601212,43.7854091 L81.0601212,38.1317727 L74.7727138,38.1317727 L74.7727138,40.1423182 Z" id="Fill-22" fill="#000000"></path>
                            <path d="M98.5252256,33.2452909 C95.0779529,33.2452909 92.6706801,35.6638364 92.6706801,39.1280182 C92.6706801,42.5919273 95.0779529,45.0104727 98.5252256,45.0104727 C101.963071,45.0104727 104.364148,42.5919273 104.364148,39.1280182 C104.364148,35.6638364 101.963071,33.2452909 98.5252256,33.2452909" id="Fill-23" fill="#000000"></path>
                            <path d="M156.623138,3.59179091 C156.623138,4.09197273 156.26435,4.40260909 155.686842,4.40260909 L154.902195,4.40260909 L154.902195,2.8497 C155.198761,2.83960909 155.41802,2.83579091 155.665024,2.83579091 C156.022734,2.83579091 156.623138,2.93397273 156.623138,3.59179091 L156.623138,3.59179091 Z M156.357279,4.75933636 C156.86637,4.55615455 157.155663,4.13560909 157.155663,3.59179091 C157.155663,2.79788182 156.594586,2.32388182 155.654249,2.32388182 C155.273104,2.32388182 154.896,2.34133636 154.56334,2.35660909 L154.364283,2.36560909 L154.364283,6.24733636 L154.902195,6.24733636 L154.902195,4.90360909 L155.562397,4.90360909 C155.646707,4.90360909 155.731017,4.89951818 155.812094,4.89488182 L156.790949,6.24733636 L157.448189,6.24733636 L156.357279,4.75933636 Z" id="Fill-24" fill="#000000"></path>
                            <path d="M155.735488,0.719890909 C153.594613,0.719890909 152.099394,2.22125455 152.099394,4.37089091 C152.099394,6.52052727 153.594613,8.02189091 155.735488,8.02189091 C157.870168,8.02189091 159.360808,6.52052727 159.360808,4.37089091 C159.360808,2.22125455 157.870168,0.719890909 155.735488,0.719890909 M155.735488,8.64343636 C153.233131,8.64343636 151.485522,6.88652727 151.485522,4.37089091 C151.485522,1.85525455 153.233131,0.0983454545 155.735488,0.0983454545 C158.23165,0.0983454545 159.974949,1.85525455 159.974949,4.37089091 C159.974949,6.88652727 158.23165,8.64343636 155.735488,8.64343636" id="Fill-25" fill="#000000"></path>
                        </g>
                    </g>
                </g>
            </g>
        </g>
    </g>
</svg>