<svg width="20" height="21" viewBox="0 0 20 21" fill="none" xmlns="http://www.w3.org/2000/svg">
<path d="M10 0.960938C12.717 0.960938 13.056 0.970937 14.122 1.02094C15.187 1.07094 15.912 1.23794 16.55 1.48594C17.21 1.73994 17.766 2.08394 18.322 2.63894C18.8305 3.13883 19.224 3.74353 19.475 4.41094C19.722 5.04794 19.89 5.77394 19.94 6.83894C19.987 7.90494 20 8.24394 20 10.9609C20 13.6779 19.99 14.0169 19.94 15.0829C19.89 16.1479 19.722 16.8729 19.475 17.5109C19.2247 18.1787 18.8311 18.7836 18.322 19.2829C17.822 19.7913 17.2173 20.1847 16.55 20.4359C15.913 20.6829 15.187 20.8509 14.122 20.9009C13.056 20.9479 12.717 20.9609 10 20.9609C7.283 20.9609 6.944 20.9509 5.878 20.9009C4.813 20.8509 4.088 20.6829 3.45 20.4359C2.78233 20.1854 2.17753 19.7919 1.678 19.2829C1.16941 18.7831 0.775931 18.1784 0.525 17.5109C0.277 16.8739 0.11 16.1479 0.0599999 15.0829C0.0129999 14.0169 0 13.6779 0 10.9609C0 8.24394 0.00999994 7.90494 0.0599999 6.83894C0.11 5.77294 0.277 5.04894 0.525 4.41094C0.775236 3.74312 1.1688 3.13826 1.678 2.63894C2.17767 2.13017 2.78243 1.73667 3.45 1.48594C4.088 1.23794 4.812 1.07094 5.878 1.02094C6.944 0.973937 7.283 0.960938 10 0.960938ZM10 5.96094C8.67392 5.96094 7.40215 6.48772 6.46447 7.4254C5.52678 8.36309 5 9.63486 5 10.9609C5 12.287 5.52678 13.5588 6.46447 14.4965C7.40215 15.4342 8.67392 15.9609 10 15.9609C11.3261 15.9609 12.5979 15.4342 13.5355 14.4965C14.4732 13.5588 15 12.287 15 10.9609C15 9.63486 14.4732 8.36309 13.5355 7.4254C12.5979 6.48772 11.3261 5.96094 10 5.96094ZM16.5 5.71094C16.5 5.37942 16.3683 5.06147 16.1339 4.82705C15.8995 4.59263 15.5815 4.46094 15.25 4.46094C14.9185 4.46094 14.6005 4.59263 14.3661 4.82705C14.1317 5.06147 14 5.37942 14 5.71094C14 6.04246 14.1317 6.3604 14.3661 6.59482C14.6005 6.82924 14.9185 6.96094 15.25 6.96094C15.5815 6.96094 15.8995 6.82924 16.1339 6.59482C16.3683 6.3604 16.5 6.04246 16.5 5.71094ZM10 7.96094C10.7956 7.96094 11.5587 8.27701 12.1213 8.83962C12.6839 9.40223 13 10.1653 13 10.9609C13 11.7566 12.6839 12.5196 12.1213 13.0823C11.5587 13.6449 10.7956 13.9609 10 13.9609C9.20435 13.9609 8.44129 13.6449 7.87868 13.0823C7.31607 12.5196 7 11.7566 7 10.9609C7 10.1653 7.31607 9.40223 7.87868 8.83962C8.44129 8.27701 9.20435 7.96094 10 7.96094Z" fill="#2A2A2A"/>
</svg>
