<svg width="18" height="21" viewBox="0 0 18 21" fill="none" xmlns="http://www.w3.org/2000/svg">
<path d="M15.335 17.6213H12.67V12.8468C12.67 11.7084 12.65 10.243 11.28 10.243C9.891 10.243 9.679 11.4821 9.679 12.7634V17.6213H7.013V7.8038H9.573V9.14114H9.608C9.966 8.37074 10.836 7.55577 12.136 7.55577C14.836 7.55577 15.336 9.58807 15.336 12.2319V17.6213H15.335ZM4.003 6.46075C3.79956 6.46105 3.59806 6.41545 3.41006 6.32656C3.22207 6.23768 3.05127 6.10725 2.90746 5.94277C2.76365 5.77828 2.64965 5.58297 2.57201 5.36803C2.49437 5.15309 2.4546 4.92274 2.455 4.6902C2.4552 4.34025 2.54618 3.99822 2.71644 3.70737C2.8867 3.41651 3.12859 3.1899 3.41153 3.05619C3.69447 2.92248 4.00574 2.88767 4.30598 2.95616C4.60622 3.02466 4.88196 3.19338 5.09831 3.44099C5.31466 3.68861 5.46191 4.004 5.52145 4.34727C5.58099 4.69055 5.55013 5.04629 5.43278 5.36952C5.31543 5.69275 5.11687 5.96895 4.86219 6.16318C4.60751 6.35742 4.30817 6.46097 4.002 6.46075H4.003ZM5.339 17.6213H2.666V7.8038H5.34V17.6213H5.339ZM16.67 0.0883789H1.329C0.593 0.0883789 0 0.751334 0 1.57088V19.1803C0 19.9999 0.594 20.6628 1.328 20.6628H16.666C17.4 20.6628 18 19.9999 18 19.1803V1.57088C18 0.751334 17.4 0.0883789 16.666 0.0883789H16.669H16.67Z" fill="#2A2A2A"/>
</svg>
