<svg width="21" height="20" viewBox="0 0 21 20" fill="none" xmlns="http://www.w3.org/2000/svg">
<path d="M20.7783 3.04506C20.0293 3.41769 19.2349 3.66242 18.4216 3.77115C19.2789 3.19451 19.9205 2.28699 20.2269 1.2177C19.4223 1.7562 18.5403 2.13359 17.6209 2.33773C17.0034 1.59463 16.1849 1.1018 15.2926 0.935856C14.4003 0.769917 13.4843 0.940167 12.6869 1.42014C11.8896 1.90011 11.2555 2.66291 10.8834 3.58995C10.5113 4.51699 10.4219 5.55633 10.6292 6.54639C8.99761 6.45442 7.40148 5.97757 5.94441 5.14681C4.48734 4.31605 3.20191 3.14994 2.17157 1.7242C1.80686 2.42871 1.6152 3.22959 1.61623 4.04481C1.61623 5.64485 2.34033 7.0584 3.44119 7.88601C2.78971 7.86294 2.15256 7.66507 1.58287 7.30889V7.36627C1.58306 8.4319 1.91094 9.46466 2.5109 10.2894C3.11086 11.1142 3.94598 11.6803 4.87467 11.8916C4.26989 12.0759 3.63576 12.1031 3.02027 11.9711C3.28211 12.8883 3.79245 13.6905 4.47984 14.2653C5.16723 14.8401 5.99724 15.1588 6.85367 15.1767C6.00249 15.9285 5.0279 16.4843 3.98562 16.8122C2.94333 17.1402 1.85379 17.2338 0.779297 17.0879C2.65498 18.4445 4.83846 19.1648 7.06854 19.1624C14.6166 19.1624 18.7444 12.13 18.7444 6.03106C18.7444 5.83244 18.7395 5.63161 18.7316 5.43519C19.5351 4.78211 20.2285 3.9731 20.7793 3.04616L20.7783 3.04506Z" fill="#2A2A2A"/>
</svg>
