<svg width="20" height="17" viewBox="0 0 20 17" fill="none" xmlns="http://www.w3.org/2000/svg">
<path d="M19.543 3.45894C20 5.24094 20 8.96094 20 8.96094C20 8.96094 20 12.6809 19.543 14.4629C19.289 15.4479 18.546 16.2229 17.605 16.4849C15.896 16.9609 10 16.9609 10 16.9609C10 16.9609 4.107 16.9609 2.395 16.4849C1.45 16.2189 0.708 15.4449 0.457 14.4629C2.98023e-08 12.6809 0 8.96094 0 8.96094C0 8.96094 2.98023e-08 5.24094 0.457 3.45894C0.711 2.47394 1.454 1.69894 2.395 1.43694C4.107 0.960937 10 0.960938 10 0.960938C10 0.960938 15.896 0.960937 17.605 1.43694C18.55 1.70294 19.292 2.47694 19.543 3.45894ZM8 12.4609L14 8.96094L8 5.46094V12.4609Z" fill="#2A2A2A"/>
</svg>
